<?xml version="1.0" encoding="utf-8"?>
<!-- Generator: Adobe Illustrator 24.0.1, SVG Export Plug-In . SVG Version: 6.00 Build 0)  -->
<svg version="1.1" id="Capa_1" xmlns="http://www.w3.org/2000/svg" xmlns:xlink="http://www.w3.org/1999/xlink" x="0px" y="0px"
	 viewBox="0 0 1145.63 500" style="enable-background:new 0 0 1145.63 500;" xml:space="preserve">
<style type="text/css">
	.st0{fill:#F3F5F9;}
</style>
<g>
	<g>
		<path class="st0" d="M76.35,307.79c-20.72,0-41.44,0.01-62.17,0c-6.67,0-11.22-2.77-13.21-8.23c-0.57-1.56-0.87-3.32-0.87-4.98
			c-0.06-20.17-0.06-40.34-0.02-60.51c0.01-5.35,1.91-9.93,5.91-13.61c16.86-15.48,33.7-30.97,50.53-46.47
			c14.33-13.19,28.64-26.41,42.98-39.6c15.03-13.84,30.09-27.65,45.12-41.49c10.87-10.01,21.71-20.06,32.59-30.07
			c14.78-13.6,29.58-27.18,44.38-40.76c6.57-6.03,13.2-12,19.72-18.09C244.27,1.21,247.7,0,251.68,0
			c37.22,0.01,74.44-0.02,111.65,0.02c7.54,0.01,12.78,3.91,14.21,10.4c1.08,4.88-0.45,9.05-4.05,12.38
			c-13.1,12.11-26.24,24.17-39.38,36.24c-14.49,13.31-29,26.61-43.49,39.93c-16.4,15.07-32.78,30.16-49.17,45.24
			c-20.15,18.54-40.29,37.08-60.44,55.62c-1.85,1.71-3.75,3.37-5.54,5.14c-3.63,3.58-4.64,8.52-2.77,13.11
			c1.95,4.8,6.28,7.76,11.41,7.76c35.79,0,71.57,0,107.36,0c2.79,0,5.59,0,8.38,0c3.41,0.01,6.32,1.18,8.9,3.46
			c12.14,10.74,24.33,21.42,36.49,32.13c9.35,8.23,18.71,16.46,28.02,24.73c4.24,3.77,5.59,8.96,3.73,13.63
			c-2.12,5.33-6.28,8.08-12.23,8.09c-37.9,0-75.8-0.01-113.7,0.02c-3.83,0-6.94-1.3-9.79-3.84c-10.93-9.74-21.95-19.37-32.93-29.05
			c-10.83-9.55-21.65-19.1-32.47-28.65c-5.36-4.73-10.74-9.45-16.08-14.2c-1.4-1.25-2.93-1.78-4.68-1.01
			c-1.77,0.78-2.29,2.33-2.29,4.19c0.02,19.83,0.01,39.66,0.01,59.49c0,7.06-4.82,12.27-11.88,12.83c-0.88,0.07-1.77,0.1-2.65,0.1
			C117.66,307.79,97.01,307.79,76.35,307.79z"/>
	</g>
	<g>
		<path class="st0" d="M0.01,95.74c0-27.59,0-55.19,0-82.78c0-7.53,5.3-12.81,12.85-12.81c42.26,0,84.51,0.08,126.77-0.09
			c6-0.02,13.07,4.53,13.11,12.75c0.07,16.22,0.05,32.43-0.01,48.65c-0.01,3.69-1.42,6.84-4.21,9.39
			c-14.72,13.47-29.42,26.96-44.1,40.47c-10.93,10.05-21.81,20.14-32.73,30.19c-12.67,11.66-25.37,23.31-38.06,34.96
			c-4.06,3.73-8.15,7.43-12.16,11.21c-4.06,3.82-9.18,4.99-13.91,2.83c-5.07-2.32-7.57-6.34-7.56-11.98
			C0.03,150.93,0.01,123.34,0.01,95.74z"/>
	</g>
</g>
<g>
	<path class="st0" d="M463.18,307.93h-30.31l46.18-133.78h36.45l46.12,133.78h-30.31L497.8,204.72h-1.05L463.18,307.93z
		 M461.29,255.34h71.59v22.08h-71.59V255.34z"/>
	<path class="st0" d="M643.5,174.15v133.78h-28.28V174.15H643.5z"/>
	<path class="st0" d="M704.34,307.93V174.15h52.78c10.1,0,18.74,1.8,25.9,5.39c7.16,3.59,12.63,8.67,16.4,15.22
		c3.77,6.55,5.65,14.25,5.65,23.09c0,8.88-1.92,16.52-5.75,22.9c-3.83,6.38-9.37,11.27-16.62,14.67c-7.25,3.4-16.02,5.1-26.29,5.1
		h-35.34v-22.73h30.77c5.4,0,9.89-0.74,13.46-2.22c3.57-1.48,6.24-3.7,8-6.66c1.76-2.96,2.65-6.64,2.65-11.04
		c0-4.44-0.88-8.19-2.65-11.24c-1.76-3.05-4.44-5.37-8.03-6.96c-3.59-1.59-8.11-2.38-13.55-2.38h-19.07v110.66H704.34z
		 M776.59,247.05l33.25,60.88h-31.22l-32.53-60.88H776.59z"/>
	<path class="st0" d="M985.52,241.04c0,14.59-2.75,27-8.26,37.23c-5.51,10.23-13,18.04-22.47,23.42
		c-9.47,5.38-20.11,8.07-31.91,8.07c-11.89,0-22.56-2.7-32.01-8.1c-9.45-5.4-16.92-13.22-22.41-23.45
		c-5.49-10.23-8.23-22.62-8.23-37.17c0-14.59,2.74-27,8.23-37.23c5.49-10.23,12.96-18.04,22.41-23.42
		c9.45-5.38,20.12-8.07,32.01-8.07c11.8,0,22.44,2.69,31.91,8.07c9.47,5.38,16.96,13.18,22.47,23.42
		C982.77,214.04,985.52,226.45,985.52,241.04z M956.85,241.04c0-9.45-1.4-17.42-4.21-23.91c-2.81-6.49-6.76-11.41-11.86-14.76
		c-5.1-3.35-11.06-5.03-17.9-5.03c-6.84,0-12.8,1.68-17.9,5.03c-5.1,3.35-9.05,8.27-11.86,14.76c-2.81,6.49-4.21,14.46-4.21,23.91
		c0,9.45,1.4,17.42,4.21,23.91c2.81,6.49,6.76,11.41,11.86,14.76c5.1,3.35,11.06,5.03,17.9,5.03c6.84,0,12.8-1.68,17.9-5.03
		c5.1-3.35,9.05-8.27,11.86-14.76C955.44,258.46,956.85,250.49,956.85,241.04z"/>
	<path class="st0" d="M1116.52,212.62c-0.52-5.27-2.77-9.36-6.73-12.28c-3.96-2.92-9.34-4.38-16.13-4.38
		c-4.62,0-8.51,0.64-11.69,1.93c-3.18,1.29-5.61,3.06-7.28,5.32c-1.68,2.26-2.52,4.83-2.52,7.71c-0.09,2.4,0.42,4.49,1.54,6.27
		c1.11,1.79,2.65,3.32,4.61,4.61c1.96,1.28,4.22,2.4,6.79,3.33c2.57,0.94,5.31,1.73,8.23,2.38l12.02,2.87
		c5.84,1.31,11.19,3.05,16.07,5.23c4.88,2.18,9.1,4.86,12.67,8.03c3.57,3.18,6.35,6.92,8.33,11.24c1.98,4.31,2.99,9.25,3.04,14.83
		c-0.04,8.19-2.12,15.28-6.24,21.26c-4.12,5.99-10.04,10.63-17.77,13.91c-7.73,3.29-17.04,4.93-27.93,4.93
		c-10.8,0-20.2-1.66-28.19-4.96c-7.99-3.31-14.22-8.22-18.68-14.73c-4.46-6.51-6.8-14.58-7.02-24.2h27.37
		c0.3,4.49,1.6,8.22,3.89,11.2c2.29,2.98,5.36,5.23,9.21,6.73c3.85,1.5,8.22,2.25,13.1,2.25c4.79,0,8.96-0.7,12.51-2.09
		c3.55-1.39,6.3-3.33,8.26-5.81c1.96-2.48,2.94-5.33,2.94-8.56c0-3-0.88-5.53-2.65-7.58c-1.76-2.05-4.33-3.79-7.71-5.23
		c-3.38-1.44-7.5-2.74-12.38-3.92l-14.57-3.66c-11.28-2.74-20.18-7.03-26.72-12.87c-6.53-5.84-9.78-13.7-9.73-23.58
		c-0.04-8.1,2.12-15.18,6.5-21.23c4.38-6.05,10.4-10.78,18.06-14.17c7.66-3.4,16.37-5.1,26.13-5.1c9.93,0,18.61,1.7,26.03,5.1
		c7.42,3.4,13.21,8.12,17.34,14.17c4.14,6.05,6.27,13.06,6.4,21.03H1116.52z"/>
</g>
<g>
	<path class="st0" d="M0.22,498.62v-84.24h37.35c7.51,0,13.22,0.76,17.12,2.27c3.91,1.51,7.03,4.19,9.37,8.02
		c2.34,3.83,3.51,8.06,3.51,12.7c0,5.98-1.93,11.01-5.8,15.11c-3.87,4.1-9.85,6.7-17.93,7.81c2.95,1.42,5.19,2.82,6.72,4.19
		c3.26,2.99,6.34,6.72,9.25,11.2l14.65,22.93H60.44L49.29,481.1c-3.26-5.06-5.94-8.93-8.04-11.61c-2.11-2.68-3.99-4.56-5.66-5.63
		c-1.67-1.07-3.36-1.82-5.09-2.24c-1.26-0.27-3.33-0.4-6.21-0.4H11.37v37.41H0.22z M11.37,451.56h23.96c5.09,0,9.08-0.53,11.95-1.58
		c2.87-1.05,5.06-2.74,6.55-5.06c1.49-2.32,2.24-4.84,2.24-7.56c0-3.98-1.45-7.26-4.34-9.83c-2.89-2.57-7.46-3.85-13.7-3.85H11.37
		V451.56z"/>
	<path class="st0" d="M219.63,478.97l10.69,1.32c-1.69,6.24-4.81,11.09-9.37,14.54c-4.56,3.45-10.38,5.17-17.47,5.17
		c-8.93,0-16-2.75-21.23-8.25c-5.23-5.5-7.84-13.21-7.84-23.13c0-10.27,2.64-18.23,7.93-23.9c5.29-5.67,12.14-8.5,20.57-8.5
		c8.16,0,14.82,2.78,20,8.33c5.17,5.55,7.76,13.37,7.76,23.44c0,0.61-0.02,1.53-0.06,2.76h-45.51c0.38,6.7,2.28,11.84,5.69,15.4
		c3.41,3.56,7.66,5.34,12.76,5.34c3.79,0,7.03-1,9.71-2.99C215.93,486.52,218.06,483.34,219.63,478.97z M185.67,462.25h34.07
		c-0.46-5.13-1.76-8.98-3.91-11.55c-3.3-3.98-7.57-5.98-12.81-5.98c-4.75,0-8.74,1.59-11.98,4.77
		C187.8,452.67,186.01,456.92,185.67,462.25z"/>
	<path class="st0" d="M333.31,480.41l10.23-1.61c0.57,4.1,2.17,7.24,4.8,9.42c2.62,2.18,6.29,3.28,11,3.28
		c4.75,0,8.27-0.97,10.57-2.9c2.3-1.93,3.45-4.2,3.45-6.81c0-2.34-1.02-4.17-3.05-5.52c-1.42-0.92-4.94-2.09-10.57-3.5
		c-7.58-1.92-12.84-3.57-15.77-4.97c-2.93-1.4-5.15-3.33-6.67-5.8c-1.51-2.47-2.27-5.2-2.27-8.19c0-2.72,0.62-5.24,1.87-7.56
		c1.24-2.32,2.94-4.24,5.09-5.77c1.61-1.19,3.8-2.19,6.58-3.02c2.78-0.82,5.76-1.24,8.94-1.24c4.79,0,8.99,0.69,12.61,2.07
		c3.62,1.38,6.29,3.25,8.02,5.6c1.72,2.36,2.91,5.51,3.56,9.45l-10.11,1.38c-0.46-3.14-1.79-5.59-3.99-7.35
		c-2.2-1.76-5.32-2.64-9.34-2.64c-4.75,0-8.14,0.79-10.17,2.36c-2.03,1.57-3.05,3.41-3.05,5.52c0,1.34,0.42,2.55,1.26,3.62
		c0.84,1.11,2.16,2.03,3.96,2.76c1.03,0.38,4.08,1.26,9.14,2.64c7.32,1.95,12.42,3.55,15.31,4.8c2.89,1.25,5.16,3.06,6.81,5.43
		c1.65,2.38,2.47,5.32,2.47,8.85c0,3.45-1.01,6.69-3.02,9.74c-2.01,3.05-4.91,5.4-8.71,7.07c-3.79,1.67-8.08,2.5-12.87,2.5
		c-7.93,0-13.97-1.65-18.13-4.94C337.11,491.76,334.46,486.88,333.31,480.41z"/>
	<path class="st0" d="M532.2,478.97l10.69,1.32c-1.69,6.24-4.81,11.09-9.37,14.54c-4.56,3.45-10.38,5.17-17.47,5.17
		c-8.93,0-16-2.75-21.23-8.25c-5.23-5.5-7.84-13.21-7.84-23.13c0-10.27,2.64-18.23,7.93-23.9c5.29-5.67,12.14-8.5,20.57-8.5
		c8.16,0,14.82,2.78,20,8.33c5.17,5.55,7.76,13.37,7.76,23.44c0,0.61-0.02,1.53-0.06,2.76h-45.51c0.38,6.7,2.28,11.84,5.69,15.4
		c3.41,3.56,7.66,5.34,12.76,5.34c3.79,0,7.03-1,9.71-2.99C528.5,486.52,530.63,483.34,532.2,478.97z M498.24,462.25h34.07
		c-0.46-5.13-1.76-8.98-3.91-11.55c-3.3-3.98-7.57-5.98-12.81-5.98c-4.75,0-8.74,1.59-11.98,4.77
		C500.38,452.67,498.59,456.92,498.24,462.25z"/>
	<path class="st0" d="M689.84,491.09c-3.83,3.26-7.52,5.56-11.06,6.9c-3.54,1.34-7.35,2.01-11.41,2.01c-6.7,0-11.86-1.64-15.46-4.91
		c-3.6-3.28-5.4-7.46-5.4-12.56c0-2.99,0.68-5.72,2.04-8.19c1.36-2.47,3.14-4.45,5.34-5.95c2.2-1.49,4.68-2.62,7.44-3.39
		c2.03-0.54,5.09-1.05,9.19-1.55c8.35-1,14.5-2.18,18.44-3.56c0.04-1.42,0.06-2.32,0.06-2.7c0-4.21-0.98-7.18-2.93-8.91
		c-2.64-2.34-6.57-3.5-11.78-3.5c-4.87,0-8.46,0.85-10.77,2.56c-2.32,1.71-4.03,4.72-5.14,9.05l-10.11-1.38
		c0.92-4.33,2.43-7.82,4.54-10.49c2.11-2.66,5.15-4.71,9.14-6.15c3.98-1.44,8.6-2.15,13.85-2.15c5.21,0,9.44,0.61,12.7,1.84
		c3.26,1.23,5.65,2.77,7.18,4.63c1.53,1.86,2.6,4.2,3.22,7.04c0.34,1.76,0.52,4.94,0.52,9.54v13.79c0,9.62,0.22,15.7,0.66,18.24
		c0.44,2.55,1.31,4.99,2.61,7.33h-10.8C690.84,496.48,690.15,493.97,689.84,491.09z M688.98,467.99c-3.75,1.53-9.39,2.84-16.89,3.91
		c-4.25,0.61-7.26,1.3-9.02,2.07c-1.76,0.77-3.12,1.89-4.08,3.36c-0.96,1.48-1.44,3.11-1.44,4.91c0,2.76,1.04,5.06,3.13,6.9
		c2.09,1.84,5.14,2.76,9.16,2.76c3.98,0,7.53-0.87,10.63-2.61c3.1-1.74,5.38-4.13,6.84-7.15c1.11-2.34,1.67-5.78,1.67-10.34V467.99z
		"/>
	<path class="st0" d="M809.5,498.62V437.6h9.31v9.25c2.37-4.33,4.57-7.18,6.58-8.56c2.01-1.38,4.22-2.07,6.64-2.07
		c3.49,0,7.03,1.11,10.63,3.33l-3.56,9.6c-2.53-1.49-5.06-2.24-7.58-2.24c-2.26,0-4.29,0.68-6.09,2.04
		c-1.8,1.36-3.08,3.25-3.85,5.66c-1.15,3.68-1.72,7.7-1.72,12.07v31.95H809.5z"/>
	<path class="st0" d="M982.76,476.27l10.17,1.32c-1.11,7.01-3.96,12.5-8.53,16.46c-4.58,3.96-10.2,5.95-16.86,5.95
		c-8.35,0-15.06-2.73-20.14-8.19c-5.08-5.46-7.61-13.28-7.61-23.47c0-6.59,1.09-12.35,3.28-17.3c2.18-4.94,5.51-8.65,9.97-11.12
		c4.46-2.47,9.32-3.71,14.57-3.71c6.63,0,12.05,1.68,16.26,5.03c4.21,3.35,6.91,8.11,8.1,14.28l-10.06,1.55
		c-0.96-4.1-2.65-7.18-5.09-9.25c-2.43-2.07-5.37-3.1-8.82-3.1c-5.21,0-9.44,1.87-12.7,5.6c-3.26,3.73-4.88,9.64-4.88,17.73
		c0,8.2,1.57,14.16,4.71,17.87c3.14,3.72,7.24,5.57,12.3,5.57c4.06,0,7.45-1.24,10.17-3.73
		C980.31,485.27,982.03,481.44,982.76,476.27z"/>
	<path class="st0" d="M1095.92,498.62v-84.24h10.34v30.22c4.83-5.59,10.92-8.39,18.27-8.39c4.52,0,8.45,0.89,11.78,2.67
		c3.33,1.78,5.72,4.24,7.15,7.38c1.44,3.14,2.15,7.7,2.15,13.68v38.67h-10.34v-38.67c0-5.17-1.12-8.94-3.36-11.29
		c-2.24-2.36-5.41-3.53-9.51-3.53c-3.07,0-5.95,0.8-8.65,2.38c-2.7,1.59-4.63,3.74-5.77,6.46c-1.15,2.72-1.72,6.47-1.72,11.26v33.38
		H1095.92z"/>
</g>
</svg>
