<?xml version="1.0" encoding="utf-8"?>
<!-- Generator: Adobe Illustrator 24.0.1, SVG Export Plug-In . SVG Version: 6.00 Build 0)  -->
<svg version="1.1" id="Capa_1" xmlns="http://www.w3.org/2000/svg" xmlns:xlink="http://www.w3.org/1999/xlink" x="0px" y="0px"
	 viewBox="0 0 500 407.42" style="enable-background:new 0 0 500 407.42;" xml:space="preserve">
<style type="text/css">
	.st0{fill:#252525;}
</style>
<g>
	<path class="st0" d="M101.03,407.24c-27.42,0-54.84,0.01-82.25,0c-8.83,0-14.84-3.66-17.48-10.89c-0.76-2.07-1.15-4.39-1.16-6.59
		c-0.08-26.69-0.08-53.38-0.03-80.06c0.01-7.08,2.52-13.14,7.82-18.01c22.3-20.48,44.58-40.98,66.86-61.48
		c18.96-17.45,37.9-34.94,56.86-52.39c19.89-18.31,39.81-36.58,59.7-54.89c14.39-13.24,28.73-26.54,43.12-39.78
		c19.56-18,39.14-35.96,58.72-53.94c8.7-7.98,17.47-15.88,26.09-23.94C323.19,1.6,327.74,0,333.01,0
		c49.24,0.01,98.49-0.02,147.73,0.03c9.97,0.01,16.91,5.17,18.81,13.76c1.43,6.46-0.6,11.98-5.36,16.38
		c-17.33,16.03-34.72,31.98-52.11,47.95c-19.18,17.62-38.38,35.21-57.55,52.83c-21.69,19.94-43.37,39.9-65.05,59.85
		c-26.66,24.53-53.31,49.06-79.97,73.6c-2.45,2.26-4.96,4.46-7.33,6.8c-4.8,4.74-6.14,11.27-3.67,17.35
		c2.58,6.35,8.31,10.27,15.1,10.27c47.35,0.01,94.7,0,142.05,0c3.7,0,7.4-0.01,11.09,0c4.51,0.01,8.37,1.56,11.78,4.58
		c16.06,14.21,32.19,28.34,48.28,42.51c12.37,10.89,24.76,21.77,37.08,32.73c5.61,4.98,7.39,11.85,4.93,18.04
		c-2.81,7.06-8.31,10.7-16.18,10.7c-50.15,0-100.29-0.02-150.44,0.03c-5.06,0-9.18-1.72-12.95-5.08
		c-14.46-12.89-29.04-25.63-43.57-38.44c-14.33-12.63-28.64-25.27-42.97-37.91c-7.1-6.26-14.21-12.5-21.28-18.79
		c-1.86-1.65-3.88-2.36-6.19-1.33c-2.34,1.04-3.03,3.09-3.03,5.54c0.02,26.24,0.02,52.47,0.01,78.71c0,9.34-6.38,16.24-15.71,16.98
		c-1.17,0.09-2.34,0.13-3.51,0.13C155.68,407.25,128.35,407.24,101.03,407.24z"/>
	<path class="st0" d="M0.02,126.68c0-36.51,0-73.02,0-109.53c0-9.96,7.01-16.95,17-16.95c55.91,0,111.82,0.1,167.73-0.12
		c7.94-0.03,17.29,5.99,17.34,16.87c0.09,21.46,0.07,42.91-0.01,64.37c-0.02,4.88-1.87,9.05-5.57,12.43
		c-19.48,17.82-38.92,35.67-58.35,53.54c-14.46,13.29-28.86,26.64-43.31,39.94c-16.77,15.43-33.57,30.84-50.35,46.26
		c-5.37,4.94-10.78,9.83-16.09,14.83c-5.37,5.05-12.15,6.61-18.4,3.74C3.3,248.99-0.01,243.68,0,236.21
		C0.04,199.7,0.02,163.19,0.02,126.68z"/>
</g>
</svg>
